<svg xmlns="http://www.w3.org/2000/svg" xmlns:xlink="http://www.w3.org/1999/xlink" width="500" zoomAndPan="magnify" viewBox="0 0 375 374.999991" height="500" preserveAspectRatio="xMidYMid meet" version="1.0"><defs><filter x="0%" y="0%" width="100%" height="100%" id="295db3b1fa"><feColorMatrix values="0 0 0 0 1 0 0 0 0 1 0 0 0 0 1 0 0 0 1 0" color-interpolation-filters="sRGB"/></filter><clipPath id="c6347ae02f"><path d="M 118.6875 112.5 L 256.6875 112.5 L 256.6875 262.5 L 118.6875 262.5 Z M 118.6875 112.5 " clip-rule="nonzero"/></clipPath><mask id="6f5d9cac4d"><g filter="url(#295db3b1fa)"><rect x="-37.5" width="450" fill="#000000" y="-37.499999" height="449.999989" fill-opacity="0.1765"/></g></mask><clipPath id="f888aa146a"><path d="M 16 1 L 30.601562 1 L 30.601562 15 L 16 15 Z M 16 1 " clip-rule="nonzero"/></clipPath><clipPath id="01c4674f1c"><path d="M 0.601562 1 L 8 1 L 8 15.359375 L 0.601562 15.359375 Z M 0.601562 1 " clip-rule="nonzero"/></clipPath><clipPath id="8ab4038d29"><rect x="0" width="31" y="0" height="16"/></clipPath></defs><rect x="-37.5" width="450" fill="#ffffff" y="-37.499999" height="449.999989" fill-opacity="1"/><rect x="-37.5" width="450" fill="#ffffff" y="-37.499999" height="449.999989" fill-opacity="1"/><g clip-path="url(#c6347ae02f)"><path fill="#fffaf3" d="M 125.46875 262.460938 C 121.726562 262.460938 118.683594 259.425781 118.683594 255.695312 L 118.683594 119.304688 C 118.683594 115.574219 121.726562 112.539062 125.46875 112.539062 L 249.90625 112.539062 C 253.648438 112.539062 256.691406 115.574219 256.691406 119.304688 L 256.691406 255.695312 C 256.691406 259.425781 253.648438 262.460938 249.90625 262.460938 Z M 125.46875 262.460938 " fill-opacity="1" fill-rule="nonzero"/></g><path fill="#ffe7d9" d="M 249.90625 258.296875 L 125.46875 258.296875 C 124.027344 258.296875 122.863281 257.132812 122.863281 255.695312 L 122.863281 119.304688 C 122.863281 117.867188 124.027344 116.703125 125.46875 116.703125 L 249.90625 116.703125 C 251.347656 116.703125 252.511719 117.867188 252.511719 119.304688 L 252.511719 255.695312 C 252.511719 257.132812 251.347656 258.296875 249.90625 258.296875 Z M 249.90625 258.296875 " fill-opacity="1" fill-rule="nonzero"/><path fill="#c44a5e" d="M 245.402344 239.386719 L 220.480469 239.386719 L 183.707031 231.699219 L 131.757812 239.214844 L 129.5 239.21875 L 129.5 123.085938 L 245.402344 123.085938 Z M 245.402344 239.386719 " fill-opacity="1" fill-rule="nonzero"/><path fill="#fa5d5c" d="M 143.210938 243.667969 C 140.796875 239.816406 137.40625 243.617188 136.757812 244.832031 C 136.109375 243.617188 132.71875 239.816406 130.304688 243.667969 C 127.777344 247.703125 136.800781 255.277344 136.800781 255.277344 C 136.800781 255.277344 145.738281 247.703125 143.210938 243.667969 Z M 143.210938 243.667969 " fill-opacity="1" fill-rule="nonzero"/><path fill="#411c36" d="M 150.636719 251.261719 C 150.417969 251.261719 150.195312 251.230469 149.960938 251.164062 C 149.730469 251.097656 149.535156 250.996094 149.375 250.863281 C 149.3125 250.8125 149.265625 250.75 149.230469 250.671875 C 149.199219 250.59375 149.179688 250.519531 149.179688 250.445312 C 149.179688 250.367188 149.21875 250.292969 149.285156 250.214844 C 149.355469 250.140625 149.453125 250.105469 149.574219 250.105469 C 149.664062 250.105469 149.765625 250.148438 149.882812 250.238281 C 149.996094 250.308594 150.113281 250.371094 150.238281 250.421875 C 150.363281 250.472656 150.496094 250.496094 150.628906 250.496094 C 150.890625 250.496094 151.125 250.441406 151.34375 250.328125 C 151.554688 250.21875 151.726562 250.0625 151.851562 249.867188 C 151.976562 249.667969 152.039062 249.453125 152.039062 249.222656 C 152.039062 248.980469 151.984375 248.777344 151.878906 248.609375 C 151.773438 248.4375 151.632812 248.308594 151.449219 248.210938 C 151.269531 248.117188 151.066406 248.070312 150.84375 248.070312 C 150.660156 248.070312 150.496094 248.101562 150.355469 248.160156 C 150.214844 248.214844 150.089844 248.273438 149.980469 248.332031 C 149.871094 248.390625 149.773438 248.421875 149.683594 248.421875 C 149.539062 248.421875 149.429688 248.390625 149.351562 248.324219 C 149.277344 248.261719 149.230469 248.183594 149.210938 248.09375 C 149.191406 248 149.1875 247.914062 149.199219 247.835938 L 149.492188 245.703125 C 149.507812 245.609375 149.554688 245.53125 149.628906 245.46875 C 149.703125 245.402344 149.796875 245.371094 149.910156 245.371094 L 152.355469 245.371094 C 152.46875 245.371094 152.5625 245.410156 152.636719 245.484375 C 152.710938 245.558594 152.75 245.652344 152.75 245.761719 C 152.75 245.875 152.710938 245.964844 152.636719 246.039062 C 152.5625 246.109375 152.46875 246.144531 152.355469 246.144531 L 150.117188 246.144531 L 150.210938 246.070312 L 149.941406 247.902344 L 149.816406 247.65625 C 149.867188 247.597656 149.953125 247.542969 150.070312 247.492188 C 150.191406 247.4375 150.328125 247.394531 150.480469 247.359375 C 150.632812 247.324219 150.789062 247.304688 150.945312 247.304688 C 151.3125 247.304688 151.640625 247.386719 151.933594 247.550781 C 152.226562 247.714844 152.457031 247.941406 152.625 248.230469 C 152.792969 248.519531 152.875 248.847656 152.875 249.210938 C 152.875 249.5 152.816406 249.769531 152.699219 250.019531 C 152.582031 250.269531 152.421875 250.488281 152.214844 250.675781 C 152.007812 250.859375 151.769531 251.003906 151.5 251.109375 C 151.230469 251.210938 150.941406 251.261719 150.636719 251.261719 Z M 150.636719 251.261719 " fill-opacity="1" fill-rule="nonzero"/><path fill="#411c36" d="M 155.992188 251.289062 C 155.523438 251.289062 155.128906 251.160156 154.804688 250.898438 C 154.480469 250.640625 154.238281 250.285156 154.074219 249.832031 C 153.910156 249.378906 153.828125 248.867188 153.828125 248.289062 C 153.828125 247.703125 153.910156 247.1875 154.074219 246.734375 C 154.238281 246.28125 154.480469 245.925781 154.804688 245.671875 C 155.128906 245.414062 155.523438 245.289062 155.992188 245.289062 C 156.457031 245.289062 156.851562 245.414062 157.171875 245.671875 C 157.492188 245.925781 157.738281 246.28125 157.90625 246.734375 C 158.070312 247.1875 158.15625 247.703125 158.15625 248.289062 C 158.15625 248.867188 158.070312 249.378906 157.90625 249.832031 C 157.738281 250.285156 157.492188 250.640625 157.171875 250.898438 C 156.851562 251.160156 156.457031 251.289062 155.992188 251.289062 Z M 155.992188 250.445312 C 156.253906 250.445312 156.476562 250.363281 156.664062 250.195312 C 156.851562 250.03125 156.996094 249.785156 157.097656 249.460938 C 157.199219 249.140625 157.253906 248.75 157.253906 248.289062 C 157.253906 247.820312 157.199219 247.425781 157.097656 247.105469 C 156.996094 246.78125 156.851562 246.539062 156.664062 246.371094 C 156.476562 246.203125 156.253906 246.121094 155.992188 246.121094 C 155.730469 246.121094 155.503906 246.203125 155.3125 246.371094 C 155.125 246.539062 154.980469 246.78125 154.878906 247.105469 C 154.78125 247.425781 154.730469 247.820312 154.730469 248.289062 C 154.730469 248.75 154.777344 249.140625 154.878906 249.460938 C 154.980469 249.785156 155.125 250.03125 155.3125 250.195312 C 155.503906 250.363281 155.730469 250.445312 155.992188 250.445312 Z M 155.992188 250.445312 " fill-opacity="1" fill-rule="nonzero"/><path fill="#411c36" d="M 159.640625 251.203125 C 159.515625 251.203125 159.410156 251.164062 159.328125 251.082031 C 159.246094 251.003906 159.207031 250.902344 159.207031 250.78125 L 159.207031 245.796875 C 159.207031 245.675781 159.25 245.574219 159.332031 245.492188 C 159.417969 245.414062 159.523438 245.371094 159.660156 245.371094 C 159.785156 245.371094 159.890625 245.414062 159.96875 245.492188 C 160.046875 245.574219 160.085938 245.675781 160.085938 245.796875 L 160.085938 250.78125 C 160.078125 250.902344 160.039062 251.003906 159.960938 251.082031 C 159.882812 251.164062 159.777344 251.203125 159.640625 251.203125 Z M 163.328125 245.347656 C 163.4375 245.347656 163.53125 245.390625 163.601562 245.480469 C 163.675781 245.570312 163.710938 245.660156 163.710938 245.753906 C 163.710938 245.855469 163.667969 245.945312 163.585938 246.03125 L 159.984375 249.4375 L 159.933594 248.453125 L 162.992188 245.503906 C 163.09375 245.398438 163.203125 245.347656 163.328125 245.347656 Z M 163.285156 251.210938 C 163.15625 251.210938 163.054688 251.160156 162.976562 251.054688 L 160.894531 248.378906 L 161.539062 247.730469 L 163.660156 250.488281 C 163.726562 250.578125 163.761719 250.671875 163.761719 250.78125 C 163.761719 250.914062 163.710938 251.019531 163.609375 251.097656 C 163.511719 251.171875 163.402344 251.210938 163.285156 251.210938 Z M 163.285156 251.210938 " fill-opacity="1" fill-rule="nonzero"/><path fill="#ffc6c5" d="M 200.644531 173.585938 C 200.65625 172.882812 202.503906 172.277344 202.601562 171.097656 C 202.832031 168.308594 203.214844 164.847656 203.3125 163.960938 C 203.328125 163.820312 203.332031 163.746094 203.332031 163.746094 L 202.207031 163.773438 L 197.707031 163.898438 L 191.308594 164.070312 L 183.957031 164.273438 C 183.957031 164.273438 187.65625 165.605469 187.636719 167.703125 C 187.628906 168.855469 183.976562 170.503906 183.867188 171.65625 C 183.859375 171.695312 183.859375 171.738281 183.851562 171.78125 C 183.769531 172.628906 185.800781 173.546875 185.628906 174.179688 Z M 200.644531 173.585938 " fill-opacity="1" fill-rule="nonzero"/><path fill="#fa5d5c" d="M 202.207031 163.773438 C 200.777344 165.722656 198.976562 167.347656 196.941406 168.621094 C 194.28125 170.265625 191.234375 171.3125 188.09375 171.683594 C 186.691406 171.855469 185.265625 171.882812 183.851562 171.78125 C 183.859375 171.738281 183.859375 171.695312 183.867188 171.65625 C 183.976562 170.503906 184.019531 169.246094 184.027344 168.09375 C 184.046875 165.996094 183.957031 164.273438 183.957031 164.273438 L 191.308594 164.070312 L 197.707031 163.898438 Z M 202.207031 163.773438 " fill-opacity="1" fill-rule="nonzero"/><path fill="#411c36" d="M 192.867188 127.703125 C 185.925781 123.667969 176.984375 123.273438 169.714844 126.683594 C 168.554688 127.226562 167.386719 127.90625 166.71875 128.996094 C 165.945312 130.25 165.972656 131.871094 166.472656 133.253906 C 166.96875 134.636719 167.890625 135.824219 168.855469 136.933594 C 169.058594 137.171875 169.28125 137.453125 169.222656 137.757812 C 169.136719 138.210938 168.558594 138.332031 168.101562 138.390625 C 164.652344 138.835938 161.652344 141.6875 161.046875 145.101562 C 160.484375 148.246094 161.859375 151.53125 164.125 153.789062 C 168.230469 157.875 175.070312 158.621094 180.269531 156.058594 C 185.46875 153.492188 188.933594 148.023438 189.683594 142.285156 C 190.066406 139.347656 189.808594 136.34375 190.351562 133.425781 C 190.628906 131.933594 191.113281 130.480469 191.792969 129.121094 Z M 192.867188 127.703125 " fill-opacity="1" fill-rule="nonzero"/><path fill="#ffc6c5" d="M 172.648438 163.777344 C 172.679688 164.238281 172.777344 164.671875 172.945312 165.078125 C 173.542969 166.628906 175.011719 167.722656 176.75 167.796875 L 202.425781 168.84375 C 202.425781 168.84375 202.679688 166.863281 203 163.933594 C 203.117188 163.945312 203.238281 163.957031 203.355469 163.960938 C 204.925781 164.019531 206.558594 163.921875 207.960938 163.203125 C 209.761719 162.277344 210.945312 160.398438 211.40625 158.425781 C 211.703125 157.1875 211.738281 155.855469 211.28125 154.671875 C 210.613281 152.957031 208.933594 151.71875 207.113281 151.417969 C 206.253906 151.273438 205.171875 151.328125 204.105469 151.503906 C 204.226562 149.527344 204.320312 147.550781 204.320312 145.570312 C 204.316406 142.945312 204.496094 140.375 203.273438 138.027344 C 202.082031 135.746094 200.167969 133.867188 198.144531 132.234375 C 195.5 130.09375 192.203125 128.808594 188.800781 128.605469 C 188.019531 128.558594 187.234375 128.570312 186.457031 128.632812 C 181.75 129.015625 177.371094 131.453125 174.5625 135.234375 C 171.554688 139.285156 171.316406 143.90625 171.613281 148.585938 C 171.671875 149.5625 171.75 150.542969 171.839844 151.519531 C 171.949219 152.808594 172.070312 154.097656 172.148438 155.371094 C 172.316406 158.175781 172.484375 160.972656 172.648438 163.777344 Z M 172.648438 163.777344 " fill-opacity="1" fill-rule="nonzero"/><path fill="#411c36" d="M 187.601562 150.363281 C 187.679688 151.34375 188.542969 152.070312 189.527344 151.992188 C 190.507812 151.910156 191.242188 151.050781 191.160156 150.070312 C 191.078125 149.089844 190.21875 148.363281 189.234375 148.441406 C 188.253906 148.523438 187.519531 149.382812 187.601562 150.363281 Z M 187.601562 150.363281 " fill-opacity="1" fill-rule="nonzero"/><path fill="#411c36" d="M 173.929688 149.847656 C 174.011719 150.828125 174.875 151.554688 175.855469 151.476562 C 176.839844 151.394531 177.570312 150.535156 177.488281 149.554688 C 177.410156 148.574219 176.546875 147.847656 175.566406 147.925781 C 174.582031 148.007812 173.851562 148.867188 173.929688 149.847656 Z M 173.929688 149.847656 " fill-opacity="1" fill-rule="nonzero"/><path fill="#fa5d5c" d="M 181.050781 147.992188 L 178.503906 155.136719 C 178.359375 155.601562 178.722656 156.0625 179.210938 156.039062 L 183.933594 155.800781 Z M 181.050781 147.992188 " fill-opacity="1" fill-rule="nonzero"/><path fill="#411c36" d="M 181.890625 159.101562 C 180.847656 159.101562 179.792969 158.769531 178.882812 158.144531 C 178.761719 158.0625 178.734375 157.902344 178.8125 157.785156 C 178.894531 157.667969 179.058594 157.640625 179.175781 157.71875 C 180.101562 158.351562 181.183594 158.65625 182.226562 158.574219 C 183.316406 158.488281 184.347656 157.953125 184.988281 157.148438 C 185.078125 157.039062 185.238281 157.019531 185.351562 157.109375 C 185.464844 157.195312 185.484375 157.359375 185.394531 157.46875 C 184.667969 158.386719 183.5 158.992188 182.269531 159.089844 C 182.144531 159.097656 182.015625 159.101562 181.890625 159.101562 Z M 181.890625 159.101562 " fill-opacity="1" fill-rule="nonzero"/><g mask="url(#6f5d9cac4d)"><g transform="matrix(1, 0, 0, 1, 171, 150)"><g clip-path="url(#8ab4038d29)"><g clip-path="url(#f888aa146a)"><path fill="#fa5d5c" d="M 16.488281 8.480469 C 16.796875 12.253906 20.113281 15.0625 23.898438 14.753906 C 27.683594 14.445312 30.5 11.136719 30.191406 7.359375 C 29.882812 3.585938 26.5625 0.777344 22.777344 1.085938 C 18.992188 1.394531 16.175781 4.703125 16.488281 8.480469 Z M 16.488281 8.480469 " fill-opacity="1" fill-rule="nonzero"/></g><g clip-path="url(#01c4674f1c)"><path fill="#fa5d5c" d="M 1.648438 13.777344 C 1.679688 14.238281 1.777344 14.671875 1.945312 15.078125 C 5.273438 14.375 7.640625 11.285156 7.355469 7.8125 C 7.070312 4.339844 4.238281 1.683594 0.839844 1.519531 C 0.953125 2.808594 1.070312 4.097656 1.148438 5.367188 C 1.316406 8.175781 1.484375 10.972656 1.648438 13.777344 Z M 1.648438 13.777344 " fill-opacity="1" fill-rule="nonzero"/></g></g></g></g><path fill="#411c36" d="M 203.78125 161.734375 C 203.6875 161.730469 203.613281 161.65625 203.613281 161.5625 C 203.65625 159.417969 204.132812 157.574219 205.027344 156.078125 C 206.078125 154.324219 207.769531 153.078125 209.554688 152.742188 C 209.648438 152.722656 209.734375 152.785156 209.75 152.878906 C 209.769531 152.96875 209.707031 153.058594 209.617188 153.074219 C 207.925781 153.390625 206.320312 154.578125 205.316406 156.25 C 204.453125 157.695312 203.992188 159.484375 203.953125 161.570312 C 203.949219 161.660156 203.875 161.734375 203.78125 161.734375 Z M 203.78125 161.734375 " fill-opacity="1" fill-rule="nonzero"/><path fill="#411c36" d="M 172.511719 144.785156 C 172.441406 145.371094 172.542969 146.089844 173.078125 146.34375 C 173.273438 146.4375 173.496094 146.449219 173.710938 146.457031 C 174.851562 146.5 175.996094 146.453125 177.128906 146.308594 C 177.742188 146.230469 178.402344 146.097656 178.792969 145.625 C 179.132812 145.21875 179.191406 144.640625 179.136719 144.117188 C 178.953125 142.386719 177.496094 141.867188 175.941406 142.085938 C 174.164062 142.335938 172.746094 142.78125 172.511719 144.785156 Z M 172.511719 144.785156 " fill-opacity="1" fill-rule="nonzero"/><path fill="#411c36" d="M 192.488281 144.625 C 192.558594 145.234375 192.453125 145.984375 191.894531 146.25 C 191.691406 146.347656 191.460938 146.359375 191.234375 146.367188 C 190.042969 146.414062 188.851562 146.363281 187.667969 146.210938 C 187.03125 146.132812 186.34375 145.992188 185.933594 145.5 C 185.578125 145.074219 185.519531 144.476562 185.578125 143.925781 C 185.765625 142.121094 187.289062 141.582031 188.910156 141.808594 C 190.757812 142.066406 192.242188 142.535156 192.488281 144.625 Z M 192.488281 144.625 " fill-opacity="1" fill-rule="nonzero"/><path fill="#411c36" d="M 191.285156 127.433594 C 189.921875 130.351562 188.886719 133.550781 189.25 136.75 C 189.617188 139.945312 191.679688 143.117188 194.789062 143.980469 C 195.140625 144.078125 195.535156 144.171875 195.738281 144.472656 C 195.90625 144.722656 195.894531 145.039062 195.894531 145.339844 C 195.898438 149.15625 199.144531 152.695312 202.957031 153.035156 C 203.5625 152.53125 204.226562 151.96875 204.832031 151.460938 C 205.949219 150.523438 207.753906 151.316406 208.914062 152.203125 C 209.234375 145.882812 209.535156 139.464844 209.457031 133.132812 C 209.445312 132.265625 209.421875 131.351562 208.988281 130.59375 C 208.421875 129.609375 207.292969 129.109375 206.21875 128.734375 C 201.667969 127.144531 196.042969 126.640625 191.285156 127.433594 Z M 191.285156 127.433594 " fill-opacity="1" fill-rule="nonzero"/><path fill="#ffb96b" d="M 208.324219 162.996094 C 208.003906 161.917969 207.003906 161.136719 205.820312 161.136719 C 204.378906 161.136719 203.199219 162.300781 203.199219 163.746094 C 203.199219 163.816406 203.199219 163.882812 203.214844 163.945312 C 203.3125 165.292969 204.445312 166.355469 205.820312 166.355469 C 207.261719 166.355469 208.4375 165.183594 208.4375 163.746094 C 208.4375 163.480469 208.402344 163.230469 208.324219 162.996094 Z M 205.820312 166.097656 C 204.59375 166.097656 203.578125 165.160156 203.472656 163.960938 C 203.460938 163.890625 203.460938 163.820312 203.460938 163.746094 C 203.460938 162.445312 204.515625 161.390625 205.820312 161.390625 C 206.90625 161.390625 207.824219 162.128906 208.097656 163.128906 C 208.152344 163.320312 208.179688 163.53125 208.179688 163.746094 C 208.179688 165.042969 207.121094 166.097656 205.820312 166.097656 Z M 205.820312 166.097656 " fill-opacity="1" fill-rule="nonzero"/><path fill="#905bb7" d="M 222.230469 219.289062 C 222.222656 219.316406 222.222656 219.34375 222.222656 219.371094 C 222.203125 219.605469 222.179688 219.835938 222.167969 220.074219 C 221.464844 228.855469 220.761719 236.613281 220.503906 239.402344 L 220.480469 239.402344 L 162.332031 239.277344 L 161.636719 239.277344 L 159.191406 239.269531 C 159.183594 239.078125 159.171875 238.863281 159.15625 238.625 C 159.15625 238.507812 159.148438 238.382812 159.140625 238.25 C 159.121094 237.722656 159.085938 237.117188 159.058594 236.445312 C 159.042969 236.1875 159.039062 235.929688 159.023438 235.660156 C 159.015625 235.507812 159.011719 235.355469 159.003906 235.203125 C 158.980469 234.765625 158.960938 234.300781 158.941406 233.8125 C 158.917969 233.320312 158.898438 232.808594 158.878906 232.265625 C 158.851562 231.597656 158.816406 230.898438 158.789062 230.167969 C 158.78125 229.910156 158.765625 229.652344 158.757812 229.398438 C 158.691406 227.710938 158.613281 225.882812 158.542969 223.972656 C 158.535156 223.738281 158.53125 223.507812 158.523438 223.273438 C 158.460938 221.59375 158.398438 219.851562 158.339844 218.078125 C 158.292969 216.574219 158.246094 215.042969 158.195312 213.511719 L 158.195312 213.363281 C 158.1875 213.226562 158.1875 213.082031 158.179688 212.941406 C 158.160156 212.324219 158.148438 211.703125 158.132812 211.09375 C 158.117188 210.53125 158.105469 209.976562 158.089844 209.421875 C 158.078125 208.996094 158.070312 208.574219 158.054688 208.15625 C 158.054688 208.023438 158.050781 207.894531 158.050781 207.761719 C 158.015625 206.28125 157.988281 204.816406 157.960938 203.394531 L 157.960938 203.367188 C 157.953125 202.992188 157.953125 202.621094 157.9375 202.253906 L 157.9375 202.246094 C 157.945312 202.242188 157.945312 202.226562 157.9375 202.21875 L 157.9375 202.066406 C 157.929688 201.546875 157.925781 201.023438 157.917969 200.519531 C 157.917969 199.964844 157.910156 199.414062 157.902344 198.871094 L 157.902344 197.601562 C 157.898438 197.039062 157.898438 196.492188 157.898438 195.949219 C 157.898438 195.574219 157.898438 195.199219 157.902344 194.839844 C 157.902344 194.429688 157.902344 194.03125 157.910156 193.644531 C 157.917969 193.136719 157.925781 192.644531 157.929688 192.164062 C 157.9375 191.878906 157.945312 191.609375 157.953125 191.339844 C 157.960938 191.054688 157.960938 190.777344 157.972656 190.503906 C 157.980469 190.316406 157.988281 190.136719 157.992188 189.957031 L 157.992188 189.921875 C 158.027344 188.816406 158.085938 187.839844 158.152344 187.027344 C 158.160156 186.929688 158.175781 186.824219 158.183594 186.726562 C 158.195312 186.546875 158.210938 186.378906 158.230469 186.222656 C 158.246094 186.136719 158.25 186.0625 158.265625 185.984375 C 158.300781 185.734375 158.335938 185.507812 158.371094 185.3125 C 158.398438 185.171875 158.425781 185.046875 158.453125 184.9375 C 158.46875 184.886719 158.480469 184.839844 158.496094 184.789062 C 158.507812 184.742188 158.523438 184.699219 158.539062 184.664062 C 158.566406 184.589844 158.59375 184.519531 158.632812 184.441406 C 158.667969 184.367188 158.710938 184.296875 158.761719 184.226562 C 158.890625 184 159.082031 183.769531 159.308594 183.539062 C 159.394531 183.457031 159.484375 183.367188 159.582031 183.285156 C 159.777344 183.109375 159.992188 182.945312 160.234375 182.777344 C 160.355469 182.695312 160.480469 182.609375 160.605469 182.527344 C 161.035156 182.25 161.515625 181.976562 162.046875 181.722656 C 162.964844 181.257812 164.011719 180.820312 165.136719 180.402344 C 165.1875 180.386719 165.234375 180.367188 165.285156 180.347656 C 168.453125 179.1875 172.21875 178.195312 175.449219 177.394531 C 175.867188 177.289062 176.277344 177.1875 176.675781 177.089844 C 177.300781 176.9375 177.898438 176.789062 178.464844 176.652344 C 178.644531 176.609375 178.828125 176.5625 179 176.519531 C 179.347656 176.4375 179.683594 176.355469 179.988281 176.277344 C 180.148438 176.234375 180.296875 176.199219 180.441406 176.160156 C 181.386719 175.917969 182.097656 175.714844 182.488281 175.546875 C 182.539062 175.535156 182.578125 175.511719 182.613281 175.492188 C 182.65625 175.480469 182.683594 175.457031 182.710938 175.445312 C 183.339844 175.070312 183.679688 173.5625 183.851562 171.777344 C 183.859375 171.734375 183.859375 171.695312 183.867188 171.652344 C 185.273438 171.679688 186.6875 171.695312 188.09375 171.679688 C 192.9375 171.671875 197.777344 171.480469 202.605469 171.097656 C 202.464844 172.792969 202.378906 174.25 202.445312 174.734375 C 202.449219 174.785156 202.476562 174.847656 202.535156 174.917969 C 203.597656 176.269531 213.542969 180.851562 219.390625 183.628906 C 219.398438 183.628906 219.398438 183.636719 219.402344 183.636719 C 221.449219 184.601562 222.988281 185.351562 223.476562 185.664062 C 224.589844 186.375 223.425781 204.164062 222.230469 219.289062 Z M 222.230469 219.289062 " fill-opacity="1" fill-rule="nonzero"/><path fill="#905bb7" d="M 217.671875 182.949219 C 217.671875 182.949219 251.445312 195.476562 247.890625 210.960938 C 244.335938 226.445312 207.242188 216.632812 207.242188 216.632812 L 181.167969 208.242188 L 198.117188 184.132812 Z M 217.671875 182.949219 " fill-opacity="1" fill-rule="nonzero"/><path fill="#905bb7" d="M 165.289062 180.230469 L 165.28125 180.347656 L 165.277344 180.457031 L 165.109375 183.367188 L 165.101562 183.542969 L 165.082031 183.882812 L 165.003906 185.3125 L 164.738281 189.921875 L 164.664062 191.339844 L 164.398438 195.949219 L 164.308594 197.601562 L 164.246094 198.714844 L 164.042969 202.210938 L 164.042969 202.234375 L 164.007812 202.800781 L 163.960938 203.671875 L 163.75 207.453125 L 163.703125 208.324219 L 163.640625 209.421875 L 163.457031 212.53125 L 163.355469 214.378906 L 163.179688 217.542969 L 162.824219 223.808594 L 162.785156 224.5 L 162.785156 224.507812 L 161.949219 239.277344 L 161.636719 239.277344 L 159.191406 239.269531 L 131.757812 239.214844 C 132.164062 237.695312 133.507812 232.527344 135.183594 225.140625 C 137.078125 216.820312 144.714844 201.832031 149.957031 193.082031 C 150.300781 192.511719 150.628906 191.972656 150.949219 191.457031 C 151.226562 191.011719 151.511719 190.582031 151.816406 190.164062 C 152.0625 189.816406 152.3125 189.484375 152.570312 189.164062 C 152.660156 189.054688 152.742188 188.941406 152.839844 188.839844 C 153.828125 187.636719 154.886719 186.582031 155.960938 185.664062 C 156.101562 185.539062 156.238281 185.421875 156.378906 185.3125 C 156.421875 185.269531 156.460938 185.234375 156.503906 185.207031 C 156.511719 185.207031 156.511719 185.207031 156.511719 185.207031 C 157.261719 184.582031 158.015625 184.027344 158.746094 183.542969 C 159.332031 183.152344 159.894531 182.796875 160.4375 182.480469 C 160.96875 182.171875 161.476562 181.902344 161.941406 181.660156 C 163.363281 180.9375 164.460938 180.511719 164.976562 180.332031 C 165.179688 180.265625 165.289062 180.230469 165.289062 180.230469 Z M 165.289062 180.230469 " fill-opacity="1" fill-rule="nonzero"/><path fill="#ffc6c5" d="M 186.503906 189.566406 C 186.503906 189.566406 157.347656 176.449219 156.757812 177.75 C 156.164062 179.050781 167.777344 184.722656 167.777344 184.722656 C 167.777344 184.722656 147.867188 178.339844 147.039062 179.640625 C 146.207031 180.941406 159.71875 186.613281 159.71875 186.613281 C 159.71875 186.613281 144.90625 182.59375 144.074219 184.484375 C 143.246094 186.378906 157.230469 190.75 157.230469 190.75 C 157.230469 190.75 143.480469 188.976562 143.246094 190.394531 C 143.007812 191.8125 156.164062 194.53125 156.164062 194.53125 L 164.222656 195.949219 C 164.222656 195.949219 153.199219 199.496094 153.320312 201.152344 C 153.4375 202.804688 182.472656 203.75 182.472656 203.75 Z M 186.503906 189.566406 " fill-opacity="1" fill-rule="nonzero"/><path fill="#411c36" d="M 150.949219 183.539062 L 169.4375 183.539062 L 169.4375 209.425781 L 150.949219 209.425781 Z M 150.949219 183.539062 " fill-opacity="1" fill-rule="nonzero"/><path fill="#fa5d5c" d="M 152.839844 185.3125 L 159.757812 185.3125 L 159.757812 189.921875 L 152.839844 189.921875 Z M 152.839844 185.3125 " fill-opacity="1" fill-rule="nonzero"/><path fill="#ffb96b" d="M 160.5 185.3125 L 167.421875 185.3125 L 167.421875 189.921875 L 160.5 189.921875 Z M 160.5 185.3125 " fill-opacity="1" fill-rule="nonzero"/><path fill="#c44a5e" d="M 152.839844 191.339844 L 159.757812 191.339844 L 159.757812 195.949219 L 152.839844 195.949219 Z M 152.839844 191.339844 " fill-opacity="1" fill-rule="nonzero"/><path fill="#ffa6a7" d="M 160.5 191.339844 L 167.421875 191.339844 L 167.421875 195.949219 L 160.5 195.949219 Z M 160.5 191.339844 " fill-opacity="1" fill-rule="nonzero"/><path fill="#905bb7" d="M 152.839844 197.605469 L 159.757812 197.605469 L 159.757812 202.214844 L 152.839844 202.214844 Z M 152.839844 197.605469 " fill-opacity="1" fill-rule="nonzero"/><path fill="#ffe7d9" d="M 160.5 197.605469 L 167.421875 197.605469 L 167.421875 202.214844 L 160.5 202.214844 Z M 160.5 197.605469 " fill-opacity="1" fill-rule="nonzero"/><path fill="#ffc6c5" d="M 141.230469 210.605469 C 141.230469 210.605469 154.859375 199.378906 156.519531 199.023438 C 158.179688 198.667969 171.214844 198.3125 171.453125 199.734375 C 171.6875 201.152344 157.824219 203.398438 157.824219 203.398438 C 157.824219 203.398438 170.976562 203.515625 170.976562 205.523438 C 170.976562 207.53125 157.703125 207.769531 157.703125 207.769531 L 157.644531 208.152344 C 157.644531 208.152344 170.445312 208.152344 170.621094 209.660156 C 170.886719 211.894531 157.585938 213.441406 157.585938 213.441406 C 157.585938 213.441406 167.511719 214.566406 167.511719 216.21875 C 167.511719 217.875 149.765625 218.644531 149.765625 218.644531 L 149.054688 222.660156 L 138.148438 220.652344 Z M 141.230469 210.605469 " fill-opacity="1" fill-rule="nonzero"/><path fill="#411c36" d="M 222.351562 220.113281 C 222.320312 220.113281 222.289062 220.109375 222.257812 220.101562 L 181.074219 208.578125 C 180.984375 208.550781 180.910156 208.492188 180.863281 208.410156 C 180.820312 208.328125 180.808594 208.234375 180.835938 208.144531 L 187.886719 184.210938 C 187.9375 184.035156 188.117188 183.929688 188.300781 183.972656 L 222.964844 192.304688 C 223.152344 192.347656 223.269531 192.535156 223.222656 192.722656 C 223.179688 192.910156 222.992188 193.019531 222.804688 192.980469 L 188.460938 184.722656 L 181.601562 208.003906 L 222.445312 219.429688 C 222.632812 219.484375 222.738281 219.675781 222.6875 219.859375 C 222.644531 220.011719 222.503906 220.113281 222.351562 220.113281 Z M 222.351562 220.113281 " fill-opacity="1" fill-rule="nonzero"/><path fill="#411c36" d="M 163.5 224.222656 L 162.332031 239.277344 L 161.636719 239.277344 L 162.785156 224.507812 L 162.785156 224.503906 L 158.542969 223.972656 L 137.335938 221.347656 C 137.148438 221.328125 137.007812 221.15625 137.035156 220.960938 C 137.058594 220.773438 137.238281 220.632812 137.417969 220.660156 L 139.773438 220.953125 L 149.152344 222.113281 L 158.523438 223.273438 L 162.824219 223.808594 L 163.203125 223.855469 C 163.382812 223.878906 163.515625 224.035156 163.5 224.222656 Z M 163.5 224.222656 " fill-opacity="1" fill-rule="nonzero"/><path fill="#fa5d5c" d="M 146.617188 135.566406 C 147.28125 135.789062 147.917969 136.074219 148.527344 136.417969 C 149.136719 136.765625 149.703125 137.164062 150.234375 137.625 C 150.761719 138.082031 151.242188 138.585938 151.671875 139.136719 C 152.101562 139.6875 152.472656 140.277344 152.785156 140.902344 C 153.097656 141.527344 153.347656 142.175781 153.53125 142.851562 C 153.71875 143.523438 153.835938 144.207031 153.882812 144.90625 C 153.933594 145.601562 153.914062 146.296875 153.828125 146.988281 C 153.738281 147.683594 153.585938 148.359375 153.363281 149.023438 C 153.140625 149.683594 152.859375 150.320312 152.511719 150.925781 C 152.164062 151.535156 151.761719 152.101562 151.304688 152.628906 C 150.84375 153.15625 150.339844 153.632812 149.785156 154.0625 C 149.230469 154.492188 148.640625 154.859375 148.015625 155.171875 C 147.390625 155.484375 146.738281 155.734375 146.0625 155.917969 C 145.386719 156.101562 144.699219 156.21875 144 156.269531 C 143.304688 156.320312 142.605469 156.300781 141.910156 156.214844 C 141.214844 156.125 140.535156 155.972656 139.871094 155.75 C 139.207031 155.53125 138.570312 155.246094 137.964844 154.902344 C 137.355469 154.554688 136.785156 154.152344 136.257812 153.695312 C 135.726562 153.238281 135.25 152.734375 134.820312 152.179688 C 134.390625 151.628906 134.019531 151.042969 133.707031 150.417969 C 133.390625 149.792969 133.144531 149.144531 132.957031 148.46875 C 132.773438 147.796875 132.65625 147.109375 132.605469 146.414062 C 132.554688 145.71875 132.574219 145.023438 132.664062 144.328125 C 132.75 143.636719 132.90625 142.957031 133.125 142.296875 C 133.347656 141.632812 133.632812 141 133.980469 140.390625 C 134.324219 139.785156 134.726562 139.21875 135.1875 138.691406 C 135.644531 138.164062 136.152344 137.683594 136.707031 137.257812 C 137.257812 136.828125 137.847656 136.457031 138.476562 136.144531 C 139.101562 135.832031 139.753906 135.585938 140.425781 135.402344 C 141.101562 135.214844 141.789062 135.097656 142.488281 135.050781 C 143.1875 135 143.882812 135.019531 144.578125 135.105469 C 145.273438 135.195312 145.953125 135.347656 146.617188 135.566406 Z M 146.617188 135.566406 " fill-opacity="1" fill-rule="nonzero"/><path fill="#ffe7d9" d="M 149.183594 140.996094 C 147.023438 137.546875 143.984375 140.949219 143.40625 142.039062 C 142.824219 140.949219 139.785156 137.546875 137.625 140.996094 C 135.363281 144.609375 143.445312 151.394531 143.445312 151.394531 C 143.445312 151.394531 151.449219 144.609375 149.183594 140.996094 Z M 149.183594 140.996094 " fill-opacity="1" fill-rule="nonzero"/><path fill="#fa5d5c" d="M 227.707031 216.417969 C 228.128906 216.976562 228.488281 217.574219 228.789062 218.203125 C 229.089844 218.835938 229.324219 219.488281 229.496094 220.167969 C 229.667969 220.84375 229.769531 221.53125 229.808594 222.226562 C 229.84375 222.925781 229.808594 223.621094 229.707031 224.3125 C 229.605469 225.003906 229.4375 225.675781 229.203125 226.335938 C 228.96875 226.992188 228.671875 227.621094 228.316406 228.222656 C 227.957031 228.820312 227.542969 229.382812 227.074219 229.898438 C 226.601562 230.417969 226.089844 230.886719 225.527344 231.304688 C 224.964844 231.71875 224.367188 232.078125 223.734375 232.378906 C 223.101562 232.679688 222.445312 232.914062 221.769531 233.085938 C 221.089844 233.257812 220.398438 233.359375 219.699219 233.394531 C 219 233.429688 218.304688 233.398438 217.613281 233.296875 C 216.917969 233.195312 216.242188 233.027344 215.582031 232.796875 C 214.921875 232.5625 214.292969 232.265625 213.691406 231.90625 C 213.089844 231.550781 212.527344 231.136719 212.007812 230.667969 C 211.488281 230.199219 211.019531 229.6875 210.601562 229.128906 C 210.183594 228.566406 209.824219 227.972656 209.523438 227.339844 C 209.222656 226.710938 208.984375 226.054688 208.8125 225.378906 C 208.640625 224.703125 208.539062 224.015625 208.503906 223.316406 C 208.464844 222.621094 208.5 221.925781 208.601562 221.234375 C 208.703125 220.542969 208.871094 219.867188 209.105469 219.210938 C 209.339844 218.550781 209.636719 217.921875 209.996094 217.324219 C 210.355469 216.722656 210.769531 216.164062 211.238281 215.644531 C 211.707031 215.128906 212.222656 214.660156 212.785156 214.242188 C 213.34375 213.824219 213.941406 213.464844 214.574219 213.167969 C 215.207031 212.867188 215.863281 212.632812 216.542969 212.460938 C 217.21875 212.289062 217.910156 212.183594 218.609375 212.148438 C 219.308594 212.113281 220.003906 212.144531 220.699219 212.246094 C 221.390625 212.347656 222.066406 212.515625 222.726562 212.75 C 223.386719 212.984375 224.019531 213.28125 224.621094 213.636719 C 225.222656 213.996094 225.78125 214.40625 226.300781 214.875 C 226.820312 215.34375 227.289062 215.859375 227.707031 216.417969 Z M 227.707031 216.417969 " fill-opacity="1" fill-rule="nonzero"/><path fill="#ffe7d9" d="M 226.335938 220.433594 C 225.492188 216.453125 221.46875 218.609375 220.546875 219.433594 C 220.378906 218.210938 218.699219 213.972656 215.480469 216.472656 C 212.109375 219.09375 217.363281 228.230469 217.363281 228.230469 C 217.363281 228.230469 227.21875 224.601562 226.335938 220.433594 Z M 226.335938 220.433594 " fill-opacity="1" fill-rule="nonzero"/><path fill="#ffb96b" d="M 230.195312 159.886719 C 230.808594 160.164062 231.386719 160.496094 231.9375 160.886719 C 232.484375 161.273438 232.988281 161.714844 233.449219 162.203125 C 233.910156 162.691406 234.320312 163.21875 234.675781 163.789062 C 235.035156 164.359375 235.332031 164.957031 235.570312 165.585938 C 235.808594 166.210938 235.984375 166.855469 236.09375 167.519531 C 236.207031 168.179688 236.25 168.847656 236.230469 169.515625 C 236.210938 170.1875 236.125 170.851562 235.972656 171.503906 C 235.820312 172.160156 235.609375 172.792969 235.332031 173.402344 C 235.054688 174.015625 234.722656 174.59375 234.332031 175.140625 C 233.941406 175.6875 233.5 176.191406 233.011719 176.652344 C 232.519531 177.109375 231.992188 177.519531 231.417969 177.875 C 230.847656 178.230469 230.25 178.527344 229.621094 178.765625 C 228.992188 179.003906 228.34375 179.175781 227.679688 179.289062 C 227.015625 179.398438 226.347656 179.445312 225.675781 179.425781 C 225.003906 179.402344 224.339844 179.320312 223.683594 179.167969 C 223.027344 179.015625 222.394531 178.804688 221.78125 178.527344 C 221.167969 178.253906 220.585938 177.921875 220.039062 177.53125 C 219.488281 177.140625 218.984375 176.703125 218.523438 176.214844 C 218.0625 175.722656 217.652344 175.195312 217.296875 174.625 C 216.941406 174.058594 216.640625 173.460938 216.402344 172.832031 C 216.164062 172.203125 215.988281 171.558594 215.878906 170.898438 C 215.769531 170.234375 215.722656 169.570312 215.742188 168.898438 C 215.761719 168.226562 215.847656 167.566406 216 166.910156 C 216.152344 166.257812 216.363281 165.625 216.640625 165.011719 C 216.917969 164.402344 217.25 163.820312 217.640625 163.273438 C 218.03125 162.730469 218.472656 162.226562 218.960938 161.765625 C 219.453125 161.304688 219.984375 160.898438 220.554688 160.542969 C 221.125 160.1875 221.722656 159.890625 222.351562 159.652344 C 222.980469 159.414062 223.628906 159.238281 224.292969 159.128906 C 224.957031 159.015625 225.625 158.972656 226.296875 158.992188 C 226.96875 159.011719 227.632812 159.097656 228.289062 159.25 C 228.945312 159.398438 229.578125 159.613281 230.195312 159.886719 Z M 230.195312 159.886719 " fill-opacity="1" fill-rule="nonzero"/><path fill="#411c36" d="M 222.035156 168.019531 C 221.871094 168.8125 221.089844 169.320312 220.292969 169.15625 C 219.5 168.992188 218.988281 168.214844 219.152344 167.417969 C 219.316406 166.625 220.097656 166.117188 220.894531 166.28125 C 221.691406 166.445312 222.203125 167.222656 222.035156 168.019531 Z M 222.035156 168.019531 " fill-opacity="1" fill-rule="nonzero"/><path fill="#411c36" d="M 232.523438 170.191406 C 232.359375 170.984375 231.578125 171.496094 230.78125 171.332031 C 229.984375 171.164062 229.476562 170.386719 229.640625 169.59375 C 229.804688 168.800781 230.585938 168.289062 231.382812 168.457031 C 232.179688 168.621094 232.691406 169.398438 232.523438 170.191406 Z M 232.523438 170.191406 " fill-opacity="1" fill-rule="nonzero"/><path fill="#411c36" d="M 226.09375 172.480469 C 225.300781 172.480469 224.507812 172.121094 223.960938 171.511719 C 223.453125 170.941406 223.222656 170.230469 223.316406 169.511719 C 223.332031 169.386719 223.441406 169.300781 223.566406 169.320312 C 223.6875 169.335938 223.773438 169.445312 223.757812 169.566406 C 223.679688 170.15625 223.871094 170.742188 224.296875 171.21875 C 224.761719 171.742188 225.441406 172.0625 226.125 172.035156 C 227.0625 172.023438 227.789062 171.53125 228.347656 170.527344 C 228.40625 170.421875 228.542969 170.382812 228.652344 170.441406 C 228.757812 170.5 228.796875 170.636719 228.738281 170.742188 C 228.105469 171.882812 227.230469 172.464844 226.132812 172.480469 C 226.121094 172.480469 226.105469 172.480469 226.09375 172.480469 Z M 226.09375 172.480469 " fill-opacity="1" fill-rule="nonzero"/><path fill="#ffe7d9" d="M 207.730469 131.621094 L 239.730469 131.621094 L 239.730469 146.039062 L 215.507812 146.039062 L 210.742188 151.40625 L 211.90625 146.039062 L 207.730469 146.039062 Z M 207.730469 131.621094 " fill-opacity="1" fill-rule="nonzero"/><path fill="#fa5d5c" d="M 229.03125 136.714844 C 230.300781 134.691406 232.082031 136.6875 232.425781 137.328125 C 232.765625 136.6875 234.546875 134.691406 235.816406 136.714844 C 237.148438 138.839844 232.402344 142.820312 232.402344 142.820312 C 232.402344 142.820312 227.699219 138.835938 229.03125 136.714844 Z M 229.03125 136.714844 " fill-opacity="1" fill-rule="nonzero"/><path fill="#fa5d5c" d="M 219.953125 136.714844 C 221.21875 134.691406 223.003906 136.6875 223.34375 137.328125 C 223.6875 136.6875 225.46875 134.691406 226.738281 136.714844 C 228.066406 138.839844 223.320312 142.820312 223.320312 142.820312 C 223.320312 142.820312 218.621094 138.835938 219.953125 136.714844 Z M 219.953125 136.714844 " fill-opacity="1" fill-rule="nonzero"/><path fill="#fa5d5c" d="M 210.871094 136.714844 C 212.140625 134.691406 213.925781 136.6875 214.265625 137.328125 C 214.609375 136.6875 216.390625 134.691406 217.660156 136.714844 C 218.988281 138.839844 214.242188 142.820312 214.242188 142.820312 C 214.242188 142.820312 209.542969 138.835938 210.871094 136.714844 Z M 210.871094 136.714844 " fill-opacity="1" fill-rule="nonzero"/><path fill="#905bb7" d="M 142.445312 181.828125 C 142.445312 182.101562 142.417969 182.371094 142.367188 182.640625 C 142.3125 182.90625 142.234375 183.167969 142.128906 183.421875 C 142.023438 183.675781 141.894531 183.914062 141.742188 184.140625 C 141.589844 184.367188 141.417969 184.578125 141.222656 184.773438 C 141.027344 184.964844 140.816406 185.140625 140.589844 185.289062 C 140.359375 185.441406 140.121094 185.570312 139.867188 185.675781 C 139.613281 185.78125 139.351562 185.859375 139.082031 185.914062 C 138.8125 185.964844 138.542969 185.992188 138.269531 185.992188 C 137.992188 185.992188 137.722656 185.964844 137.453125 185.914062 C 137.183594 185.859375 136.921875 185.78125 136.667969 185.675781 C 136.417969 185.570312 136.175781 185.441406 135.949219 185.289062 C 135.71875 185.140625 135.507812 184.964844 135.3125 184.773438 C 135.121094 184.578125 134.945312 184.367188 134.792969 184.140625 C 134.640625 183.914062 134.511719 183.675781 134.410156 183.421875 C 134.304688 183.167969 134.222656 182.90625 134.171875 182.640625 C 134.117188 182.371094 134.089844 182.101562 134.089844 181.828125 C 134.089844 181.554688 134.117188 181.28125 134.171875 181.015625 C 134.222656 180.746094 134.304688 180.484375 134.410156 180.234375 C 134.511719 179.980469 134.640625 179.738281 134.792969 179.511719 C 134.945312 179.285156 135.121094 179.074219 135.3125 178.882812 C 135.507812 178.6875 135.71875 178.515625 135.949219 178.363281 C 136.175781 178.210938 136.417969 178.082031 136.667969 177.976562 C 136.921875 177.875 137.183594 177.792969 137.453125 177.742188 C 137.722656 177.6875 137.992188 177.660156 138.269531 177.660156 C 138.542969 177.660156 138.8125 177.6875 139.082031 177.742188 C 139.351562 177.792969 139.613281 177.875 139.867188 177.976562 C 140.121094 178.082031 140.359375 178.210938 140.589844 178.363281 C 140.816406 178.515625 141.027344 178.6875 141.222656 178.882812 C 141.417969 179.074219 141.589844 179.285156 141.742188 179.511719 C 141.894531 179.738281 142.023438 179.980469 142.128906 180.234375 C 142.234375 180.484375 142.3125 180.746094 142.367188 181.015625 C 142.417969 181.28125 142.445312 181.554688 142.445312 181.828125 Z M 142.445312 181.828125 " fill-opacity="1" fill-rule="nonzero"/><path fill="#ffa6a7" d="M 239.152344 202.570312 C 239.152344 202.84375 239.125 203.113281 239.070312 203.382812 C 239.015625 203.648438 238.9375 203.910156 238.832031 204.164062 C 238.726562 204.417969 238.597656 204.65625 238.445312 204.882812 C 238.292969 205.109375 238.121094 205.320312 237.925781 205.515625 C 237.734375 205.707031 237.523438 205.882812 237.292969 206.03125 C 237.066406 206.183594 236.824219 206.3125 236.574219 206.417969 C 236.320312 206.523438 236.058594 206.601562 235.789062 206.65625 C 235.519531 206.707031 235.246094 206.734375 234.972656 206.734375 C 234.699219 206.734375 234.425781 206.707031 234.160156 206.65625 C 233.890625 206.601562 233.628906 206.523438 233.375 206.417969 C 233.121094 206.3125 232.878906 206.183594 232.652344 206.03125 C 232.425781 205.882812 232.214844 205.707031 232.019531 205.515625 C 231.824219 205.320312 231.652344 205.109375 231.5 204.882812 C 231.347656 204.65625 231.21875 204.417969 231.113281 204.164062 C 231.007812 203.910156 230.929688 203.648438 230.875 203.382812 C 230.824219 203.113281 230.796875 202.84375 230.796875 202.570312 C 230.796875 202.296875 230.824219 202.023438 230.875 201.757812 C 230.929688 201.488281 231.007812 201.226562 231.113281 200.976562 C 231.21875 200.722656 231.347656 200.480469 231.5 200.253906 C 231.652344 200.027344 231.824219 199.816406 232.019531 199.625 C 232.214844 199.429688 232.425781 199.257812 232.652344 199.105469 C 232.878906 198.953125 233.121094 198.824219 233.375 198.71875 C 233.628906 198.617188 233.890625 198.535156 234.160156 198.484375 C 234.425781 198.429688 234.699219 198.402344 234.972656 198.402344 C 235.246094 198.402344 235.519531 198.429688 235.789062 198.484375 C 236.058594 198.535156 236.320312 198.617188 236.574219 198.71875 C 236.824219 198.824219 237.066406 198.953125 237.292969 199.105469 C 237.523438 199.257812 237.734375 199.429688 237.925781 199.625 C 238.121094 199.816406 238.292969 200.027344 238.445312 200.253906 C 238.597656 200.480469 238.726562 200.722656 238.832031 200.976562 C 238.9375 201.226562 239.015625 201.488281 239.070312 201.757812 C 239.125 202.023438 239.152344 202.296875 239.152344 202.570312 Z M 239.152344 202.570312 " fill-opacity="1" fill-rule="nonzero"/><path fill="#ffb96b" d="M 164.851562 126.101562 C 165.125 126.164062 165.386719 126.253906 165.640625 126.371094 C 165.898438 126.488281 166.136719 126.625 166.363281 126.789062 C 166.59375 126.953125 166.800781 127.136719 166.992188 127.339844 C 167.183594 127.546875 167.351562 127.765625 167.5 128.003906 C 167.648438 128.242188 167.769531 128.492188 167.867188 128.753906 C 167.964844 129.015625 168.035156 129.285156 168.082031 129.558594 C 168.125 129.835938 168.144531 130.113281 168.132812 130.390625 C 168.125 130.671875 168.085938 130.945312 168.023438 131.21875 C 167.957031 131.492188 167.867188 131.753906 167.75 132.007812 C 167.636719 132.261719 167.496094 132.503906 167.332031 132.730469 C 167.167969 132.957031 166.984375 133.164062 166.777344 133.355469 C 166.574219 133.546875 166.351562 133.714844 166.113281 133.859375 C 165.875 134.007812 165.625 134.128906 165.363281 134.226562 C 165.097656 134.324219 164.828125 134.398438 164.554688 134.441406 C 164.277344 134.484375 164 134.503906 163.71875 134.492188 C 163.4375 134.484375 163.164062 134.445312 162.890625 134.382812 C 162.617188 134.316406 162.351562 134.226562 162.097656 134.113281 C 161.84375 133.996094 161.601562 133.855469 161.375 133.691406 C 161.148438 133.53125 160.9375 133.34375 160.75 133.140625 C 160.558594 132.9375 160.386719 132.714844 160.242188 132.476562 C 160.09375 132.242188 159.972656 131.992188 159.875 131.730469 C 159.773438 131.46875 159.703125 131.199219 159.660156 130.921875 C 159.613281 130.648438 159.597656 130.371094 159.605469 130.089844 C 159.617188 129.8125 159.652344 129.535156 159.71875 129.261719 C 159.78125 128.992188 159.871094 128.726562 159.988281 128.472656 C 160.105469 128.21875 160.246094 127.980469 160.410156 127.753906 C 160.574219 127.527344 160.757812 127.316406 160.960938 127.128906 C 161.167969 126.9375 161.390625 126.769531 161.628906 126.621094 C 161.867188 126.476562 162.117188 126.351562 162.378906 126.253906 C 162.640625 126.15625 162.910156 126.085938 163.1875 126.042969 C 163.464844 125.996094 163.742188 125.980469 164.023438 125.988281 C 164.300781 126 164.578125 126.035156 164.851562 126.101562 Z M 164.851562 126.101562 " fill-opacity="1" fill-rule="nonzero"/></svg>